<svg width="27" height="28" viewBox="0 0 27 28" fill="none" xmlns="http://www.w3.org/2000/svg">
<g clip-path="url(#clip0_38_2)">
<path d="M5.19766 23.1037C4.96084 22.8394 4.67781 22.6201 4.36238 22.4565C4.03766 22.2863 3.68354 22.179 3.31875 22.1403C3.26686 22.1325 3.2145 22.1282 3.16203 22.1274H2.97764C2.39286 22.1202 1.81953 22.2894 1.3329 22.6128C0.858342 22.9267 0.482987 23.3686 0.250544 23.887C0.171465 24.0709 0.109736 24.2617 0.0661567 24.457C-0.0235171 24.8541 -0.0235171 25.2661 0.0661567 25.6631C0.109656 25.8591 0.171386 26.0505 0.250544 26.235C0.486883 26.7484 0.861591 27.1864 1.3329 27.5C1.81779 27.826 2.39099 27.9967 2.9758 27.989C3.20272 27.9903 3.42907 27.9662 3.65065 27.9173C3.85779 27.8681 4.05971 27.7992 4.2536 27.7114L4.34026 27.6636C4.3849 27.6369 4.43179 27.6141 4.48039 27.5956L4.60947 27.5459L4.67584 27.647C4.73642 27.7513 4.82362 27.8377 4.92855 27.8975C5.03349 27.9572 5.15242 27.9882 5.27326 27.9872C5.45608 27.9863 5.63137 27.9144 5.76189 27.7868C5.83109 27.7276 5.88681 27.6543 5.92529 27.5718C5.96376 27.4894 5.98413 27.3997 5.985 27.3087V25.0582C5.98234 24.6954 5.90971 24.3365 5.7711 24.001C5.63298 23.6713 5.439 23.3678 5.19766 23.1037ZM4.4343 25.6779C4.35284 25.8632 4.23712 26.0316 4.09318 26.1743C3.94821 26.3166 3.77653 26.4291 3.58796 26.5052C3.39187 26.5849 3.18201 26.6255 2.97026 26.6248C2.76681 26.6244 2.56572 26.5812 2.38022 26.4979C2.19562 26.4166 2.02656 26.304 1.88053 26.1651C1.73273 26.0236 1.61267 25.8559 1.52651 25.6705C1.43596 25.4784 1.38935 25.2686 1.39006 25.0564C1.39038 24.8498 1.43437 24.6455 1.51913 24.457C1.60218 24.2695 1.71976 24.0993 1.86578 23.955C2.01077 23.8117 2.18072 23.6958 2.36732 23.613C2.55802 23.5298 2.76393 23.4868 2.9721 23.4868C3.18027 23.4868 3.3862 23.5298 3.5769 23.613C3.76638 23.6945 3.93896 23.8105 4.0858 23.955C4.23178 24.0993 4.34936 24.2695 4.43245 24.457C4.51721 24.6455 4.5612 24.8498 4.56152 25.0564C4.56395 25.272 4.52059 25.4857 4.4343 25.6834V25.6779Z" fill="white"/>
<path d="M10.1009 22.1422C9.71104 22.1568 9.32698 22.2408 8.96687 22.3904C8.62068 22.5331 8.30379 22.7382 8.03202 22.9953C7.76894 23.2525 7.55687 23.5569 7.40695 23.8926C7.2484 24.2348 7.16721 24.6077 7.16909 24.9847V27.3271C7.16593 27.4183 7.18202 27.5091 7.21632 27.5937C7.25063 27.6783 7.30239 27.7547 7.36823 27.8181C7.42999 27.8789 7.50352 27.9266 7.58436 27.9582C7.66519 27.9898 7.75164 28.0047 7.83842 28.0019C8.02273 28.0121 8.20363 27.9493 8.34179 27.8273C8.4065 27.7716 8.45892 27.7031 8.49574 27.6262C8.53255 27.5493 8.55297 27.4656 8.55569 27.3805V25.0711C8.55038 24.8568 8.59059 24.6437 8.67369 24.446C8.75263 24.2611 8.86586 24.0926 9.00743 23.9496C9.15285 23.8053 9.3255 23.6912 9.51539 23.6139C9.70528 23.5366 9.90865 23.4976 10.1138 23.4991C10.3011 23.4965 10.4804 23.4228 10.6153 23.2932C10.6794 23.2335 10.7302 23.1611 10.7645 23.0807C10.7988 23.0003 10.8158 22.9135 10.8144 22.8261C10.8022 22.642 10.7229 22.4687 10.5913 22.3389C10.5276 22.2741 10.4512 22.2231 10.3668 22.1893C10.2823 22.1554 10.1918 22.1394 10.1009 22.1422Z" fill="white"/>
<path d="M17.1057 26.4298C17.0688 26.3524 17.0153 26.284 16.9489 26.2294C16.8133 26.1059 16.6347 26.0399 16.4511 26.0456H16.4382C16.2538 26.0422 16.0749 26.1078 15.9366 26.2294C15.8033 26.3569 15.6443 26.4547 15.4702 26.5162C15.2684 26.5842 15.0561 26.616 14.8432 26.61C14.6252 26.6112 14.4092 26.5673 14.2089 26.4813C14.0177 26.399 13.8452 26.279 13.7019 26.1283C13.5712 25.9786 13.4699 25.8059 13.4032 25.619C13.3331 25.4241 13.303 25.2171 13.3147 25.0104V23.5009H14.882C14.9716 23.4997 15.06 23.48 15.1415 23.4429C15.2231 23.4059 15.2961 23.3524 15.3558 23.2857C15.4219 23.2242 15.4749 23.1502 15.5118 23.0679C15.5487 22.9857 15.5688 22.8969 15.5709 22.8068C15.573 22.7167 15.557 22.6271 15.5238 22.5433C15.4907 22.4595 15.4411 22.3831 15.378 22.3186C15.314 22.2533 15.2364 22.203 15.1506 22.1712C15.0649 22.1394 14.9731 22.127 14.882 22.1348H13.3147V20.8183C13.3181 20.7309 13.3014 20.6439 13.2659 20.5639C13.2305 20.4839 13.1771 20.4131 13.11 20.3568C12.9585 20.233 12.7674 20.1677 12.5716 20.1729C12.3786 20.1676 12.1903 20.233 12.0424 20.3568C11.9752 20.4131 11.9219 20.4839 11.8864 20.5639C11.851 20.6439 11.8343 20.7309 11.8377 20.8183V24.9994C11.8304 25.4223 11.9147 25.8419 12.0848 26.2294C12.2428 26.586 12.4717 26.9069 12.7578 27.1726C13.046 27.4369 13.3829 27.643 13.7498 27.7794C14.1362 27.9226 14.5454 27.9949 14.9575 27.9927C15.3373 27.9958 15.7136 27.922 16.0639 27.7757C16.4158 27.625 16.737 27.4113 17.0116 27.1451C17.0706 27.087 17.1148 27.0158 17.1407 26.9373C17.169 26.8539 17.1815 26.766 17.1776 26.6781C17.1705 26.5913 17.1461 26.5069 17.1057 26.4298Z" fill="white"/>
<path d="M26.6773 26.8269L24.8961 25.0581L26.6755 23.2894C26.7368 23.2253 26.7846 23.1497 26.8163 23.067C26.848 22.9843 26.8628 22.8961 26.8598 22.8076C26.8632 22.7205 26.8486 22.6335 26.8169 22.5523C26.7852 22.471 26.737 22.397 26.6755 22.3351C26.5477 22.2045 26.3735 22.1292 26.1905 22.1255H26.1831C26.0984 22.1259 26.0146 22.1436 25.9369 22.1774C25.8592 22.2113 25.7893 22.2605 25.7314 22.3222L23.9115 24.0928L22.1303 22.3388C21.9963 22.216 21.8249 22.1415 21.6435 22.1273C21.5523 22.1237 21.4614 22.1405 21.3774 22.1764C21.2935 22.2124 21.2187 22.2666 21.1586 22.3351C21.039 22.4697 20.9665 22.6394 20.9521 22.8187C20.9461 22.9017 20.9596 22.9851 20.9916 23.062C21.0237 23.1389 21.0732 23.2073 21.1364 23.2618L22.9563 25.0563L21.1364 26.8508C21.0729 26.9125 21.0235 26.9872 20.9917 27.0697C20.9599 27.1522 20.9464 27.2406 20.9521 27.3289C20.9578 27.5067 21.0325 27.6755 21.1604 27.7996C21.2229 27.8651 21.2996 27.9157 21.3845 27.9476C21.4695 27.9794 21.5605 27.9917 21.6509 27.9834C21.831 27.9787 22.0043 27.914 22.1432 27.7996L23.917 26.0381L25.6982 27.7665C25.762 27.8375 25.8402 27.8942 25.9276 27.9328C26.015 27.9715 26.1096 27.9912 26.2053 27.9908C26.2938 27.9944 26.3822 27.98 26.4649 27.9484C26.5477 27.9168 26.6231 27.8686 26.6865 27.8069C26.7541 27.7441 26.8072 27.6672 26.8419 27.5818C26.8766 27.4964 26.8921 27.4044 26.8875 27.3123C26.8868 27.2215 26.8679 27.1317 26.8318 27.0484C26.7956 26.965 26.7431 26.8897 26.6773 26.8269Z" fill="white"/>
<path d="M19.4528 22.3223C19.4088 22.2844 19.3605 22.2517 19.309 22.2248C19.2087 22.1617 19.0921 22.1291 18.9734 22.1311C18.8548 22.1291 18.7382 22.1617 18.6378 22.2248C18.5863 22.2517 18.5381 22.2844 18.494 22.3223C18.4283 22.3761 18.3754 22.4437 18.3391 22.5203C18.3027 22.5969 18.2838 22.6806 18.2838 22.7654V27.3492C18.2839 27.4394 18.3039 27.5286 18.3425 27.6102C18.381 27.6919 18.4372 27.7641 18.5069 27.8217C18.6333 27.933 18.7975 27.9922 18.9661 27.9872H18.99C19.1586 27.9922 19.3227 27.933 19.4491 27.8217C19.5189 27.7641 19.575 27.6919 19.6136 27.6102C19.6522 27.5286 19.6722 27.4394 19.6723 27.3492V22.7654C19.6711 22.6799 19.6508 22.5957 19.6129 22.5191C19.5749 22.4424 19.5202 22.3752 19.4528 22.3223Z" fill="white"/>
<path d="M19.4898 20.3916C19.4309 20.3268 19.3588 20.2753 19.2784 20.2404C19.1979 20.2055 19.111 20.1881 19.0233 20.1894C18.8438 20.1856 18.6699 20.2515 18.5383 20.3732C18.4724 20.4303 18.4191 20.5006 18.3819 20.5794C18.3448 20.6583 18.3246 20.744 18.3226 20.8311C18.315 20.9253 18.3275 21.02 18.3593 21.1091C18.3911 21.1981 18.4414 21.2795 18.507 21.3477C18.6473 21.4744 18.8303 21.5439 19.0196 21.5426C19.1067 21.5433 19.1929 21.5257 19.2727 21.4908C19.3524 21.456 19.4239 21.4047 19.4824 21.3404C19.6088 21.2136 19.6798 21.042 19.6798 20.8632C19.6798 20.6844 19.6088 20.5129 19.4824 20.3861L19.4898 20.3916Z" fill="white"/>
</g>
<g clip-path="url(#clip1_38_2)">
<path d="M13.4382 7.43884C11.4223 7.43884 9.5896 9.26848 9.5896 11.525C9.59238 12.355 9.83968 13.1635 10.297 13.8377C11.2757 13.2227 12.3368 12.7881 13.4456 12.7881C14.5544 12.7881 15.6136 13.2227 16.5941 13.8377C17.0515 13.1635 17.2988 12.355 17.3015 11.525C17.2942 9.26848 15.4597 7.43884 13.4382 7.43884Z" fill="white"/>
<path d="M13.4361 0C8.48781 0 4.47607 11.0923 4.47607 16.2708C4.47607 20.289 6.89338 15.9739 10.2875 13.8378C9.80859 13.1355 9.56085 12.2861 9.58237 11.4203C9.60389 10.5544 9.8935 9.71999 10.4066 9.04537C10.243 9.45958 10.1589 9.90412 10.1592 10.3531C10.1592 11.2732 10.5045 12.1555 11.119 12.8061C11.7335 13.4567 12.567 13.8222 13.4361 13.8222C14.3051 13.8222 15.1386 13.4567 15.7531 12.8061C16.3677 12.1555 16.7129 11.2732 16.7129 10.3531C16.7132 9.90412 16.6291 9.45958 16.4655 9.04537C16.9786 9.71999 17.2682 10.5544 17.2898 11.4203C17.3113 12.2861 17.0635 13.1355 16.5846 13.8378C19.9806 15.972 22.3961 20.289 22.3961 16.2708C22.3961 11.0943 18.3843 0 13.4361 0Z" fill="white"/>
</g>
<defs>
<clipPath id="clip0_38_2">
<rect width="26.88" height="7.84" fill="white" transform="translate(0 20.16)"/>
</clipPath>
<clipPath id="clip1_38_2">
<rect width="17.92" height="17.92" fill="white" transform="translate(4.48022)"/>
</clipPath>
</defs>
</svg>
